<?xml version="1.0" encoding="UTF-8"?>
<svg id="Layer_2" data-name="Layer 2" xmlns="http://www.w3.org/2000/svg" width="1024" height="1024" viewBox="0 0 1024 1024">
  <defs>
    <style>
      .cls-1 {
        fill: #fff;
      }
    </style>
  </defs>
  <path class="cls-1" d="m571.56,734.14c-28.88,7.75-58.48,9.83-87.99,6.18-30.54-3.78-59.66-13.57-86.56-29.1l-13,22.52c82.02,47.35,179.38,44.12,255.99-.02l-12.99-22.5c-17.32,9.99-35.88,17.67-55.44,22.92Z"/>
  <path class="cls-1" d="m495.25,777.52c-1.88,26.3-3.48,53.43-4.86,80.36l13.03,14.53c-12.88-1.8-25.32-7.66-35.25-17.59l-6.61,6.61c11.39,11.38,25.69,18.11,40.53,20.18-3.78,17-3.21,36.02,1.71,52.4-6.91,2.1-11.74,6.94-11.74,12.58,0,3.08,1.43,5.92,3.86,8.21h0c3.55,3.34,9.21,5.51,15.59,5.51,10.74,0,19.46-6.14,19.46-13.71,0-5.65-4.84-10.52-11.76-12.62,4.91-16.34,5.49-35.3,1.75-52.26,15.18-1.9,29.86-8.67,41.49-20.3l-6.61-6.61c-10.22,10.22-23.09,16.14-36.37,17.74l13.17-14.69c-1.42-27.25-3.11-54.28-5.06-80.31-5.29.32-10.59.48-15.9.48s-10.96-.18-16.42-.52Z"/>
</svg>