<?xml version="1.0" encoding="utf-8"?>
<!-- Generator: Adobe Illustrator 27.7.0, SVG Export Plug-In . SVG Version: 6.00 Build 0)  -->
<svg version="1.1" width="512" height="512"
	 id="Layer_1" xmlns:dc="http://purl.org/dc/elements/1.1/" xmlns:rdf="http://www.w3.org/1999/02/22-rdf-syntax-ns#" xmlns:cc="http://web.resource.org/cc/" xmlns:svg="http://www.w3.org/2000/svg"
	 xmlns="http://www.w3.org/2000/svg" xmlns:xlink="http://www.w3.org/1999/xlink" x="0px" y="0px" viewBox="0 0 512 512"
	 style="enable-background:new 0 0 512 512;" xml:space="preserve">
<style type="text/css">
	.st0{fill:#A05408;}
	.st1{fill:#D88E0B;}
	.st2{fill:#BA7735;}
	.st3{fill:#A36811;}
	.st4{fill:#CC8E36;}
	.st5{fill:#A55207;}
	.st6{fill:#BC5F02;}
	.st7{fill:#D68503;}
	.st8{fill:#BC6702;}
	.st9{fill:#DD8A26;}
</style>
<path class="st0" d="M237,7v1c107.3,0,207,60.5,244.9,164c39.2,106.9-2.5,228.8-96.9,291.7c-23.1,15.3-52.2,30.6-80,34.3
	c5.2,2,12.7-0.8,18-2.1c16.1-3.9,32-9.6,47-16.7C436,448,484.1,389.1,503.6,319C535.2,205.1,476.5,78.7,369,29.3
	C325.5,9.4,283.7,7,237,7z"/>
<path class="st1" d="M460,385h-1c-16.2,29.1-41.6,55-69,73.7c-44.1,30-97.3,47.7-151,45.3C89.7,497.4-23,354.1,6.2,208
	c6.2-30.9,18.7-60.7,36.1-87C63.8,88.7,92.2,61.5,126,42.3C165.2,19.9,209,8.9,254,9c37.5,0.1,77.1,11.5,110,29.3
	c14.5,7.8,27.1,18,41,26.7c-5.1-10-21.5-17.7-31-23.1c-32.5-18.7-68.6-30.2-106-32.9C130.3-1.2,6.1,105.7,0,245
	c-6.3,144.7,120.3,273.4,267,259.2c59.6-5.8,115.2-29.3,158-72.2C436.9,420.1,456,401.9,460,385z"/>
<path class="st2" d="M234,9.4C175.5,17.1,123.1,35,79,76.1C57.4,96.2,39.9,120.7,26.8,147C-42.7,286.2,38.3,459,189,496.6
	c30.1,7.5,61.3,9.1,92,5.1C398.3,486.3,490.8,385.2,496,267c5.2-119.3-80.8-229.4-198-252.8C277.6,10.1,254.8,6.7,234,9.4z"/>
<path class="st3" d="M233,43.4c-46,6-88.4,19.6-124.6,50.3C89,110.2,73.5,130.9,61.1,153c-48.1,86.1-28.2,202.1,47.3,266.3
	c45.2,38.4,106.9,56.5,165.6,49.4c32.2-3.9,63.7-14.8,91-32.4c103-66.3,129.5-216.7,52-313.1C389.7,89.3,352.4,64.7,311,52
	C286.8,44.5,258.3,40.1,233,43.4z"/>
<path class="st4" d="M240,51.4c-41.5,5.4-79.6,17-113.4,42.9c-20.1,15.4-36.8,35.2-50.2,56.7c-53.4,85.8-32,201.5,46,265.3
	c45.2,37,105.1,52.6,162.6,44.4c28.5-4,55.5-15,80-29.9c19.5-11.9,36.7-27.9,50.8-45.8c70.2-89.2,54-226.3-38.8-293.6
	c-19.6-14.2-41.7-25.4-65-32.1C289.5,52.8,263.4,48.3,240,51.4z"/>
<path class="st5" d="M460,128c8.5,23.2,21.7,43.6,28.1,68c12.3,47,9.4,96.2-6.5,142c-5.7,16.4-15.8,30.9-21.7,47
	c12-10.3,18.8-33.3,23.7-48c16.8-50.2,18.1-105.5,1.7-156C480.1,164.9,473.2,139.3,460,128z"/>
<path class="st6" d="M249,153c3.3,14.1,15.5,29,22.9,41.4c8.3,13.9,14.7,30.2,25.1,42.6c1.4-7.2-5.2-15-8.8-21
	c-8.8-14.9-17-30.1-25.8-45C259,165.3,255.6,155.1,249,153z"/>
<path class="st7" d="M248,154l-31.9,57L203,236l-2-2c-6.1,3.4-16.8-2.2-23-4c-17.6-5.1-39.8-14.4-58-15v3c7.8,4.4,11.4,19.2,15.2,27
	l32,64c3.3,6.6,7.2,20.7,13.4,25c3.7,2.6,12,1,16.4,1c14.1,0,28-1,42-1c19.3,0,38.7,1,58,1c6.2,0,16.9,2.1,22.6-0.6
	c7.1-3.3,12.7-22.5,16.1-29.4c10-19.9,19.3-40.2,29.5-60c4.9-9.6,12.8-20.4,14.7-31c-3.5,0.5-9.5,1.1-10,5c-9.5-1.7-19.9,3.2-29,6
	c-14.8,4.5-30,7.8-45,12c-3.1-10.6-11.4-20.5-16.9-30.2C269.6,190.1,261.3,167.9,248,154z"/>
<path class="st6" d="M117,211c3.7,5.9,16.1,7.2,22.6,9.1c19.9,5.8,40.9,12.9,61.4,15.9c-3.9-5.1-15.9-6.4-22-8.1
	C159.5,222.3,137.2,211.9,117,211z"/>
<path class="st8" d="M381,213c-14.1,29.5-29.1,58.7-43.8,88c-4.2,8.4-9.7,27.9-17.6,33c-7.9,5-29.3,1-38.6,1H179v1c35,0,70,1,105,1
	h27c3.3,0,8.5,1,11.4-1c8-5.6,13.5-25.2,17.9-34c14.6-29.1,31.2-58,43.8-88L381,213z"/>
<path class="st9" d="M120,218c16.4,39.5,37.5,80.1,59,117h1c-3.1-10.7-9.8-21-14.8-31l-29-58C132.6,238.8,127.9,220.7,120,218z"/>
</svg>
