<?xml version="1.0" encoding="UTF-8"?>
<svg id="Layer_1" data-name="Layer 1" xmlns="http://www.w3.org/2000/svg" width="1024" height="1024" viewBox="0 0 1024 1024">
  <defs>
    <style>
      .cls-1 {
        fill: #fff;
      }
    </style>
  </defs>
  <path class="cls-1" d="m765.48,406.19c-13.86-32.76-33.69-62.18-58.95-87.44-25.26-25.26-54.68-45.09-87.44-58.95-21.11-8.93-43.03-15.11-65.52-18.52-34-24.03-41.56-56.55-41.56-56.55,0,0-7.56,32.52-41.56,56.55-22.49,3.4-44.42,9.59-65.52,18.52-32.76,13.86-62.18,33.69-87.44,58.95-25.26,25.26-45.09,54.68-58.95,87.44-14.35,33.92-21.62,69.95-21.62,107.09s7.28,73.16,21.62,107.09c13.86,32.76,33.69,62.18,58.95,87.44,25.26,25.26,54.68,45.09,87.44,58.95,33.92,14.35,69.95,21.62,107.09,21.62s73.16-7.28,107.09-21.62c32.76-13.86,62.18-33.69,87.44-58.95,25.26-25.26,45.09-54.68,58.95-87.44,14.35-33.92,21.62-69.95,21.62-107.09s-7.28-73.16-21.62-107.09Zm-253.48,369.59c-144.97,0-262.5-117.53-262.5-262.5s117.53-262.5,262.5-262.5,262.5,117.53,262.5,262.5-117.53,262.5-262.5,262.5Z"/>
</svg>