<?xml version="1.0" encoding="utf-8"?>
<!-- Generator: Adobe Illustrator 27.7.0, SVG Export Plug-In . SVG Version: 6.00 Build 0)  -->
<svg height="512" width="512" version="1.1" id="Layer_1" xmlns="http://www.w3.org/2000/svg" xmlns:xlink="http://www.w3.org/1999/xlink" x="0px" y="0px"
	 viewBox="0 0 512 512" style="enable-background:new 0 0 512 512;" xml:space="preserve">
<style type="text/css">
	.st0{fill:#FFFFFF;}
</style>
<rect x="-59.7" y="270.9" transform="matrix(0.7071 -0.7071 0.7071 0.7071 -133.7194 244.6505)" class="st0" width="576.4" height="25.6"/>
<g>
	<path class="st0" d="M336,121c-10.8,0-20.3,8.8-27.6,23.4c-5.8,11.4-9.5,25.7-10.8,38l55.3-55.3C345.2,123,339,121,336,121z"/>
	<path class="st0" d="M279,192c0-5.1,0.4-10.6,1.2-16.2l-15.2-19V38.5c0.1-5-3.9-9.1-8.9-9.1c-0.1,0-0.2,0-0.3,0
		c-5,0.1-8.9,4.2-8.9,9.1c0,0,0,0,0,0v118.3l-15.2,19c0.8,5.6,1.2,11.1,1.2,16.2v11.2l23-28.8l22,27.5l1-1V192z"/>
	<path class="st0" d="M215,192c0-13.9-4-33.1-11.4-47.6c-7.3-14.6-16.8-23.4-27.6-23.4c-4.2,0-14.9,4-26.7,12.1
		c-11.8,8.1-25.3,19.8-38.1,33.5c-25.7,27.3-48.8,62.7-54.3,91.2c-7.5,38-11.4,81.6-11.5,119.3c-0.1,20.3,1.2,39.1,3.4,54.1
		L215,264.9V192z"/>
	<path class="st0" d="M81.7,465c16-0.9,36.8-5.7,57.1-13.4c20.3-7.7,40-18.4,54.1-30.4c14.1-12,22.1-24.9,22.1-37.2v-54.5
		L79.4,465.1C80.1,465.1,80.9,465,81.7,465z"/>
	<path class="st0" d="M455.2,257.7c-5.6-28.5-28.7-63.9-54.3-91.2c-3.8-4-7.6-7.8-11.4-11.5L297,247.5V384c0,12.2,8,25.1,22.1,37.2
		c14.1,12,33.9,22.7,54.1,30.4c20.3,7.7,41.1,12.5,57.1,13.4c8,0.5,14.7-0.1,19.2-1.3c4.5-1.2,6-2.8,6.5-3.7
		c6.3-12.6,10.8-45.2,10.8-82.9C466.6,339.3,462.6,295.7,455.2,257.7z"/>
</g>
<rect x="-59.7" y="270.9" transform="matrix(0.7071 -0.7071 0.7071 0.7071 -133.7194 244.6505)" class="st0" width="576.4" height="25.6"/>
</svg>
