<?xml version="1.0" encoding="utf-8"?>
<!-- Generator: Adobe Illustrator 27.7.0, SVG Export Plug-In . SVG Version: 6.00 Build 0)  -->
<svg width="512" height="512" version="1.1" id="Layer_1" xmlns="http://www.w3.org/2000/svg" xmlns:xlink="http://www.w3.org/1999/xlink" x="0px" y="0px"
	 viewBox="0 0 512 512" style="enable-background:new 0 0 512 512;" xml:space="preserve">
<style type="text/css">
	.st0{fill:#FFFFFF;}
</style>
<g id="surface1">
	<path class="st0" d="M173.5,307.4c7.4-0.8,10.7-6.2,13.6-11.9c7.7-14.9,10.5-30.9,8.9-47.5c-1-11.2-3.7-22.2-9.9-31.9
		c-10-15.6-25-23.1-42.6-26.4c-7.8-1.5-15.6-1.7-23.4-1.3c-2.4,0.1-4-0.6-5.5-2.6C76.9,132.8,39.1,79.9,1.3,26.9
		c-0.6-0.8-1.3-1.5-1.4-2.6c1.3-0.3,1.7,0.8,2.3,1.4c39.2,38.6,85.1,66.6,136.6,85.7c29.3,10.9,59.6,17.9,90.5,22.3
		c23.9,3.4,47.6,1.4,71.1-2.8c42.9-7.5,83.8-21.2,122.3-41.6c31.9-16.9,60.9-37.8,86.6-63.2c0.6-0.6,1.2-1.2,1.9-1.8
		c0.1-0.1,0.4-0.1,0.8-0.2c0,1.4-1,2.2-1.6,3.1c-37.7,52.8-75.4,105.5-113,158.3c-1.5,2.1-3.1,3-5.7,2.9c-12.6-0.7-25,0.6-37,5
		c-19.5,7.2-31.6,20.9-36.6,41.1c-5.1,20.9-3.1,41.1,6.3,60.4c1,2,2.3,4,3.6,5.8c3,4.2,5.2,5.5,10.2,6.6c-0.2,1.5-1.5,2-2.5,2.8
		c-6.9,5.6-14.7,9.9-23,12.9c-4.8,1.8-8.5,4.6-11.7,8.5c-9.7,11.8-16,25.4-21.5,39.4c-10.1,25.8-16.4,52.6-21.6,79.7
		c-0.5,2.8-0.6,5.7-2.6,8.4c-1-5.1-2-10.1-3-15.2c-5.3-26.6-11.9-52.9-22.3-78.1c-5-12.1-10.8-23.8-19.2-34c-3.2-3.9-7-6.9-11.9-8.7
		c-8.1-2.9-15.7-7.1-22.5-12.5C175.5,309.7,174.1,309.1,173.5,307.4z"/>
	<path class="st0" d="M177.1,247.7c0.1,2.4-0.3,4.8-0.9,7.1c-1.2,4.2-3.2,7-7.7,9.2c-18.3,8.8-31,22.9-37.7,42.2
		c-2.7,7.8-1.7,15.3,2.7,22.5c6.3,10.3,14.1,19.3,22.2,28.2c7.1,7.8,14.3,15.6,21.4,23.4c1.1,1.1,1.9,2.3,1.9,4
		c-0.2,25.1-3.6,49.6-15.8,72c-9,16.4-22,27.7-41.1,30.7c-2.3,0.4-4.5,0.5-6.8,0.7c-0.7,0.1-1.6,0.2-2-0.7c-0.3-0.7,0.4-1.2,0.9-1.6
		c16.3-14.2,22.7-33,24.7-53.8c0.6-5.5,0.3-11.1,1-16.6c0.3-2.2-0.9-4.2-1.7-6.2c-4.4-10.8-12.1-19.3-19.7-27.9
		c-10.7-12-21.7-23.9-30-37.8c-4.3-7.2-7.9-14.8-10.9-22.6c-0.8-2.1-0.8-4.1-0.2-6.3c6.8-25.7,19.4-48.1,37.8-67.4
		c5.4-5.7,10.4-11.8,15.5-17.7c0.9-1,1.7-1.9,3-2.5c9.2-3.8,18.9-6,28.8-6.5c2.1-0.1,3.5,0.6,4.7,2.2C173,229.8,177,238,177.1,247.7
		z"/>
	<path class="st0" d="M333,389.1c-1.2-4.3,1.1-8.1,4.7-12c11.2-11.9,22.5-23.8,32.6-36.6c2.9-3.7,5.4-7.6,8-11.5
		c4.8-7.3,5.6-15.1,2.7-23.1c-7.1-19.8-20.3-34.2-39.7-42.8c-1.8-0.8-3.1-1.8-3.9-3.6c-4.2-9.2-3-18.3,1.1-27.1
		c1.2-2.6,3.1-5,4.4-7.6c2.1-3.9,5.2-5,9.5-4.4c8.3,1.1,16.5,2.7,24.4,5.8c1.9,0.7,3.4,1.8,4.7,3.4c9.7,11.5,20,22.4,29.3,34.3
		c12.1,15.5,18.8,33.5,24.2,52.2c0.5,1.9-0.2,3.4-0.8,5c-5.9,16.4-15.3,30.8-26.5,44c-8.2,9.6-17.1,18.6-24.8,28.7
		c-2.6,3.4-5,6.9-7,10.7c-2.6,4.9-4.1,9.7-3.6,15.6c0.7,8.1,1,16.3,2.6,24.3c3.2,16.2,10.1,30.3,22.7,41.3c0.5,0.5,1.5,0.9,1,1.8
		c-0.5,1-1.5,0.6-2.4,0.6c-21.8-1.2-37-12.7-47.4-31.2c-8.5-15.2-12.5-31.7-14.5-48.8C333.6,401.9,333,396,333,389.1z"/>
</g>
</svg>
