<?xml version="1.0" encoding="utf-8"?>
<!-- Generator: Adobe Illustrator 27.7.0, SVG Export Plug-In . SVG Version: 6.00 Build 0)  -->
<svg version="1.1" width="512" height="512"
	 id="Layer_1" xmlns:dc="http://purl.org/dc/elements/1.1/" xmlns:rdf="http://www.w3.org/1999/02/22-rdf-syntax-ns#" xmlns:cc="http://web.resource.org/cc/" xmlns:svg="http://www.w3.org/2000/svg"
	 xmlns="http://www.w3.org/2000/svg" xmlns:xlink="http://www.w3.org/1999/xlink" x="0px" y="0px" viewBox="0 0 512 512"
	 style="enable-background:new 0 0 512 512;" xml:space="preserve">
<style type="text/css">
	.st0{fill:#B5B5B5;}
	.st1{fill:#E1E1E1;}
	.st2{fill:#C5C5C5;}
</style>
<path class="st0" d="M248,6.4c-24.6,3.2-49.1,5.2-73,12.6C112.6,38.4,60.4,81.5,29.3,139C16,163.6,6.7,191.3,2.9,219
	c-4.7,33.4-3.6,67.2,5,100C39.6,439.9,158.5,519,282,502.7c30.3-4,59.1-10.2,87-23c68-31.2,119.6-94.8,136.3-167.7
	C536.1,178,450.5,38.5,314,11.2C293,7,269.5,3.6,248,6.4z"/>
<path class="st1" d="M234,9.4C175.5,17.1,123.1,35,79,76.1C57.4,96.2,39.9,120.7,26.8,147C-42.7,286.2,38.3,459,189,496.6
	c30.1,7.5,61.3,9.1,92,5.1C398.3,486.3,490.8,385.2,496,267c5.2-119.4-80.8-229.4-198-252.8C277.6,10.1,254.8,6.7,234,9.4z"/>
<path class="st2" d="M233,43.4c-46,6-88.4,19.6-124.6,50.3C89,110.2,73.5,130.9,61.1,153c-48.1,86.1-28.2,202.1,47.3,266.3
	c45.2,38.4,106.9,56.5,165.6,49.4c32.2-3.9,63.7-14.8,91-32.4c103-66.3,129.5-216.7,52-313.1C389.7,89.3,352.4,64.7,311,52
	C286.8,44.5,258.3,40.1,233,43.4z"/>
<path class="st1" d="M240,51.4c-43.2,5.7-83.2,18.1-117.6,46.3c-20.4,16.7-38,38.1-50.7,61.3c-15.2,27.9-24.3,59.2-25.7,91
	c-5.6,127.9,115.6,228.2,239,210.7c28.5-4,55.5-15,80-29.9c19.5-11.9,36.7-27.9,50.8-45.8c70.3-89.3,53.9-226.3-38.8-293.6
	c-19.6-14.2-41.7-25.4-65-32.1C289.5,52.8,263.4,48.3,240,51.4z"/>
<path class="st2" d="M203,236c-6.7-5.1-17.9-6.4-26-8.7c-18.8-5.4-40.4-15.4-60-16.3l16.8,35l30.5,61l14.7,30h105h27
	c3.3,0,8.5,1,11.4-1c8-5.6,13.5-25.2,17.9-34c14.6-29.1,31.2-58,43.8-88c-8.9-1.4-20.5,4.3-29,7c-18.8,5.8-38.6,9.1-57,16l-12.7-26
	L252,153c-7.1,2.2-11.1,13.9-14.6,20C226.3,192.4,209.3,214.5,203,236z"/>
</svg>
