<?xml version="1.0" encoding="utf-8"?>
<!-- Generator: Adobe Illustrator 27.7.0, SVG Export Plug-In . SVG Version: 6.00 Build 0)  -->
<svg version="1.1" xmlns="http://www.w3.org/2000/svg" xmlns:xlink="http://www.w3.org/1999/xlink" x="0px" y="0px"
	 viewBox="0 0 512 512" style="enable-background:new 0 0 512 512;" xml:space="preserve">
<style type="text/css">
	.st0{fill:#FFFFFF;}
</style>
<g id="Layer_2">
</g>
<g id="Layer_1">
	<g>
		<path class="st0" d="M66.5,18c-0.3,0-0.7,0-1,0c-4.1,0.1-8.1,1.6-11.4,4.5c-7.5,6.6-8.2,18.1-1.6,25.6c4.4,5,10.9,6.9,17,5.8
			l57.8,65.5L77,163.9l24.2,27.4c9.7-21.4,22.3-39.5,37.4-54.6l6.9,36.2c25.1-6.3,49.8-10.6,74.4-12.9L196,132.9l-38.7-12.5
			c17.1-12.9,36.7-23,58.6-30.5l-24.2-27.4L141.4,107L83.5,41.5c1.8-5.8,0.6-12.4-3.7-17.3C76.3,20.2,71.4,18.1,66.5,18L66.5,18z"/>
	</g>
	<g>
		<path class="st0" d="M450.9,18c-4.9,0.1-9.7,2.2-13.2,6.1c-4.3,4.9-5.5,11.5-3.7,17.3L376.1,107l-50.4-44.5l-24.2,27.4
			c21.9,7.5,41.5,17.6,58.6,30.5l-38.7,12.5l-23.3,26.3c24.7,1.9,49.4,5.7,74.1,11.5l6.5-34c15.2,15.2,27.7,33.3,37.4,54.6
			l24.2-27.4l-50.4-44.5l57.8-65.5c6.1,1.2,12.6-0.8,17-5.8c6.6-7.5,5.9-19-1.6-25.6c-3.3-2.9-7.3-4.4-11.4-4.5
			C451.6,18,451.3,18,450.9,18L450.9,18z"/>
	</g>
	<path class="st0" d="M263.4,196.5l1,0c32.5,0.1,64.8,3.9,98.3,11.7c-1.4,39.9-11.1,83.5-27.4,121.9c-13.1,30.9-36.2,71.9-73.1,98.5
		c-30.2-21.6-55.3-55.5-73-98.6c-15.3-37.4-24.3-80.9-25.4-121.7C197.9,200.4,230.6,196.5,263.4,196.5 M263.4,176.5
		c-39.2,0-78.8,5.3-119.6,16.1c-2,90.4,34.5,209.4,118.5,259.9c81.3-49.1,122.4-169.9,120.6-259.9c-39.8-10.5-78.9-16-118.4-16.1h0
		C264.2,176.5,263.8,176.5,263.4,176.5L263.4,176.5z"/>
	<g>
		<path class="st0" d="M147.3,330l-86.9,98.3l-12.2,63.9l61.9-20l68.5-77.5C165.8,374.6,155.4,352.7,147.3,330L147.3,330z"/>
	</g>
	<g>
		<path class="st0" d="M375.5,336.1c-8.7,22.2-19.6,43.6-32.7,63.1l64.5,73l61.9,20L457,428.3L375.5,336.1L375.5,336.1z"/>
	</g>
</g>
</svg>
