<?xml version="1.0" encoding="utf-8"?>
<!-- Generator: Adobe Illustrator 27.7.0, SVG Export Plug-In . SVG Version: 6.00 Build 0)  -->
<svg width="1000" height="150" version="1.1" id="Layer_1" xmlns="http://www.w3.org/2000/svg" xmlns:xlink="http://www.w3.org/1999/xlink" x="0px" y="0px"
	 viewBox="0 0 1000 150" style="enable-background:new 0 0 1000 150;" xml:space="preserve">
<path d="M530.1,91.2h352.7c0,0,7.2-2.5,7.2-30c0,0,0.2-3.4-0.9-4.5c0,2.5-1.9,4.5-3.6,4.5H542.5c0,0,0,0,0,0
	C542.5,72.9,537.8,83.5,530.1,91.2z"/>
<path d="M457.5,61.2H114.4c-1.6,0-3.6-2-3.6-4.5c-1.1,1.1-0.9,4.5-0.9,4.5c0,27.5,7.2,30,7.2,30h352.7
	C462.2,83.5,457.5,72.9,457.5,61.2C457.5,61.3,457.5,61.2,457.5,61.2z"/>
<path d="M931.3,91.8c0,2.5-1.9,4.5-3.6,4.5H925H582.8h-58.7c-6.9,4.7-15.2,7.5-24.1,7.5s-17.2-2.8-24.1-7.5h-58.7H75h-2.7
	c-1.6,0-3.6-2-3.6-4.5c-1.1,1.1-0.9,4.5-0.9,4.5c0,27.5,7.2,30,7.2,30h382.8h84.4H925c0,0,7.2-2.5,7.2-30
	C932.2,96.2,932.4,92.9,931.3,91.8z"/>
</svg>
